<?xml version="1.0" encoding="utf-8"?>
<!-- Generator: Adobe Illustrator 19.2.1, SVG Export Plug-In . SVG Version: 6.00 Build 0)  -->
<svg version="1.1" id="Layer_1" xmlns="http://www.w3.org/2000/svg" xmlns:xlink="http://www.w3.org/1999/xlink" x="0px" y="0px"
	 viewBox="0 0 500 250" style="enable-background:new 0 0 500 250;" xml:space="preserve">
<style type="text/css">
	.st0{fill:#FFFFFF;}
	.st1{fill:#55BD86;}
</style>
<path class="st0" d="M103.4,244.2c-33.4,0-66.8,0-100.2,0c-0.4-1.6,0.7-2.6,1.6-3.6c13.8-15.7,27.6-31.3,41.4-47
	c15.4-17.5,30.8-34.9,46.2-52.4c16.8-19,33.5-38.1,50.2-57.1c3.1-3.6,6.3-7.2,9.4-10.8c-0.8-0.6-1.6-0.3-2.2-0.3c-29,0-58,0-87,0
	c-3.2,0-6.3-0.5-9.3-1.4c-14.1-4.2-24.6-18-24.3-32.8c0.2-10.4,0.1-20.9,0-31.3c0-1.2,0.2-2.3,1-3.2c94.7,0,189.3,0,284,0
	c0.4,1.4-0.5,2.3-1.3,3.3c-12.7,14.4-25.3,28.8-38,43.2C259.4,68.1,244,85.6,228.7,103c-19.1,21.6-38.1,43.3-57.1,65
	c-1.9,2.2-4.1,4.2-5.9,7c1,0,1.6,0,2.2,0c37.5,0,75,0,112.5,0c3.3,0,6.5,0.5,9.6,1.5c14.4,4.4,24.4,18.3,24.2,32.7
	c-0.2,10.1,0,20.3,0,30.4c0,4.1-0.1,4.2-4.1,4.2c-67.8,0-135.6,0-203.5,0C105.5,243.7,104.4,243.4,103.4,244.2z"/>
<path class="st1" d="M496.3,40.3c-1.1,5.4-3,10.3-6.5,14.4c-5.9,6.9-14.6,10.7-23.7,10.7c-58.1,0-116.1,0-174.2,0
	c-0.3,0-0.6,0-0.9,0c-0.6-0.1-1.6,0.4-1.9-0.5c-0.3-0.7,0.5-1.2,1-1.7c6-6.8,12.1-13.7,18.1-20.5c11-12.4,22.6-24.4,32.9-37.4
	c0.4-0.5,0.8-1.1,1.4-1.3c0.6-0.3,1.2-0.2,1.8-0.2c10.3,0.2,20.5,0.3,30.8,0.3c12,0,24.1,0,36.1,0c24.1,0,48.2,0,72.2,0
	c3.9,0,7.7,0,11.6,0c1.6,0,1.9,0.3,1.9,1.9C496.9,16.3,498.5,29.2,496.3,40.3z"/>
<path class="st1" d="M288.6,149c-21.4,0-42.7-0.2-64.1,0c-0.4,0-0.8,0-1-0.3c-0.3-0.4,0.1-1,0.4-1.4c9.1-10.1,17.6-21.1,27.2-30.7
	c4.5-5.1,8.9-10.1,13.4-15.2c3.5-3.9,6.8-7.9,10.1-12c0.5-0.6,1-1.2,1.7-1.5c0.5-0.2,1.1-0.2,1.7-0.2c32.9,0.2,65.8,0,98.6,0
	c3.8,0,3.9,0.1,3.9,3.9c0,9,0,17.9,0,26.9c0,16.7-13.7,30.4-30.4,30.4C329.6,149,309.1,149,288.6,149z"/>
</svg>
